<?xml version="1.0" encoding="UTF-8" standalone="no"?>
<!-- Created with Inkscape (http://www.inkscape.org/) -->

<svg
   width="250"
   height="250"
   viewBox="0 0 250 250"
   version="1.1"
   id="svg1"
   xml:space="preserve"
   xmlns:xlink="http://www.w3.org/1999/xlink"
   xmlns="http://www.w3.org/2000/svg"
   xmlns:svg="http://www.w3.org/2000/svg"><g
     id="g4"
     transform="matrix(1.4945401,0,0,1.4945401,-405.36008,-815.9485)"
     style="fill:#F00;fill-opacity:1;fill-rule:evenodd;stroke-width:1.00031;stroke-dasharray:none"><path
       id="path21"
       d="m 0,0 c 0,-10.08 -7.16,-18.561 -22.55,-18.561 -2.21,0 -4.25,0.131 -6.12,0.401 -0.344,0.046 -0.668,0.109 -0.999,0.166 l 0.079,16.914 0.01,-0.01 0.1,21.029 c 0.77,0.071 1.38,0.721 1.38,1.511 v 0.409 c 0.01,0.481 -0.22,0.911 -0.57,1.191 1.9,3.29 3.15,9.8 3.16,11.849 l 0.1,21.811 c 0.02,2.43 -1.53,4.58 -3.84,5.35 -0.57,0.19 -1.16,0.29 -1.74,0.29 -0.66,0.01 -1.17,-0.09 -1.74,-0.27 -2.32,-0.75 -3.88,-2.88 -3.9,-5.31 l -0.1,-21.82 c -0.01,-2.051 1.18,-8.57 3.04,-11.87 -0.04,-0.03 -0.08,-0.07 -0.12,-0.11 -0.3,-0.29 -0.46,-0.67 -0.46,-1.08 v -0.42 c 0,-0.781 0.6,-1.44 1.37,-1.52 l -0.1,-20.08 -0.01,0.02 -0.02,-5.52 0.01,-0.21 -0.059,-11.346 C -41.108,-14.738 -44.83,-8.942 -44.83,0 v 55.53 c 0,12.37 6.9,18.56 22.28,18.56 1.97,0 3.81,-0.14 5.51,-0.4 0.343,-0.051 0.668,-0.12 1.001,-0.182 l 0.059,-12.158 -0.01,-0.01 0.03,-5.69 h 0.01 l 0.09,-20.07 c -0.35,-0.04 -0.67,-0.19 -0.92,-0.45 -0.29,-0.29 -0.45,-0.67 -0.45,-1.08 l 0.01,-0.41 c 0,-0.411 0.16,-0.79 0.45,-1.08 0.04,-0.04 0.08,-0.081 0.13,-0.11 -1.87,-3.31 -3.06,-9.83 -3.05,-11.87 l 0.11,-21.82 c 0.01,-2.43 1.58,-4.56 3.9,-5.31 0.55,-0.18 1.13,-0.27 1.7,-0.27 0.64,-0.04 1.19,0.09 1.77,0.29 2.31,0.77 3.86,2.91 3.85,5.34 l -0.11,21.82 c -0.01,2.04 -1.26,8.559 -3.16,11.84 0.36,0.28 0.58,0.71 0.58,1.2 l -0.01,0.41 c 0,0.79 -0.61,1.44 -1.38,1.51 l -0.168,37.049 C -4.063,69.836 0,63.231 0,55.53 Z m -22.55,85.23 c -29.44,0 -48.27,-11.85 -48.27,-29.7 V 0 c 0,-17.851 18.83,-29.7 48.27,-29.7 29.45,0 48.28,11.67 48.28,29.7 v 55.53 c 0,18.03 -18.83,29.7 -48.28,29.7"
       style="fill:#F00;fill-opacity:1;fill-rule:evenodd;stroke:none;stroke-width:0.750231;stroke-dasharray:none"
       transform="matrix(1.3333333,0,0,-1.3333333,384.92507,666.61067)"
       clip-path="url(#clipPath22)" /></g></svg>
