<?xml version="1.0" encoding="UTF-8" standalone="no"?>
<!-- Generator: Adobe Illustrator 24.2.3, SVG Export Plug-In . SVG Version: 6.00 Build 0)  -->

<svg
   version="1.1"
   id="Layer_1"
   x="0px"
   y="0px"
   viewBox="0 0 464.8 92.299995"
   xml:space="preserve"
   width="464.80002"
   height="92.299995"
   xmlns="http://www.w3.org/2000/svg"
   xmlns:svg="http://www.w3.org/2000/svg"><defs
   id="defs9" />
<g
   id="g7"
   transform="translate(-163.7,-260.3)">
	<path
   d="m 262.1,325 2.8,-3.4 c 1.1,-1.3 3.1,-1.6 4.5,-0.5 5.7,4.3 11.5,6.7 18.7,6.7 7.3,0 11.9,-3.4 11.9,-8.4 v -0.2 c 0,-4.8 -2.7,-7.4 -15.1,-10.2 -14.3,-3.4 -22.3,-7.7 -22.3,-20 v -0.2 c 0,-11.5 9.6,-19.4 22.9,-19.4 8.5,0 15.4,2.2 21.6,6.4 1.5,1 2,3.1 0.9,4.7 l -2.5,3.6 c -1,1.4 -3,1.9 -4.5,0.9 -5.2,-3.3 -10.4,-5.1 -15.6,-5.1 -6.9,0 -10.9,3.5 -10.9,7.9 v 0.2 c 0,5.2 3.1,7.5 16,10.5 14.2,3.4 21.4,8.5 21.4,19.6 v 0.2 c 0,12.5 -9.9,20 -23.9,20 -9.2,0 -17.8,-2.8 -25.3,-8.6 -1.6,-1.1 -1.8,-3.3 -0.6,-4.7 z"
   id="path1" />
	<path
   d="m 316.3,286.8 h 8.7 c 0.8,0 1.5,0.7 1.5,1.5 v 2.8 c 0,1.3 1.6,2 2.5,1 3.5,-3.7 8.2,-6.4 14.7,-6.4 11.9,0 23.5,9.4 23.5,26.2 v 0.2 c 0,16.8 -11.5,26.2 -23.5,26.2 -6.6,0 -11.3,-2.6 -14.7,-6 -0.9,-0.9 -2.5,-0.3 -2.5,1 v 17.8 c 0,0.8 -0.7,1.5 -1.5,1.5 h -8.7 c -0.8,0 -1.5,-0.7 -1.5,-1.5 v -62.9 c 0,-0.8 0.7,-1.4 1.5,-1.4 z m 39,25.3 v -0.2 c 0,-9.8 -6.6,-16.2 -14.5,-16.2 -7.8,0 -14.7,6.5 -14.7,16.2 v 0.2 c 0,9.7 6.9,16.2 14.7,16.2 8,0 14.5,-6.2 14.5,-16.2 z"
   id="path2" />
	<path
   d="m 368.6,312.2 v -0.7 c 0,-16.3 15.1,-28.9 31,-25.1 11.9,2.9 17.9,14 17.9,26.5 0,0 0,0 0,0 0,1.8 -1.5,3.2 -3.3,3.2 h -33.6 c -0.2,0 -0.4,0.2 -0.4,0.4 1.4,8 7.1,12.4 14.5,12.4 4.7,0 8.2,-1.4 11.6,-4.1 1.3,-1 3.1,-1 4.4,0.1 l 2.4,2.1 c 1.2,1.1 1.3,3 0.1,4.2 -4.6,4.5 -10.6,7.2 -18.6,7.2 -14.7,0 -26,-10.6 -26,-26.2 z m 37,-3.7 c 0.2,0 0.4,-0.2 0.4,-0.4 -0.9,-7.3 -5.3,-12.9 -12.8,-12.9 -6.9,0 -11.9,5.3 -13,12.9 0,0.2 0.1,0.4 0.4,0.4 z"
   id="path3" />
	<path
   d="m 418.2,322.7 v -0.2 c 0,-10.9 8.5,-16.3 20.9,-16.3 5.6,0 9.7,0.9 13.6,2.1 v -1.2 c 0,-7.2 -4.4,-11 -12.5,-11 -5,0 -8.9,1 -12.9,2.5 -0.9,0.3 -1.8,-0.1 -2.1,-1 l -2,-6.1 c -0.3,-0.8 0.1,-1.7 0.9,-2 5.1,-2.2 10.3,-3.5 17.7,-3.5 7.6,0 13.2,2 16.8,5.6 3.7,3.6 5.5,9 5.5,15.6 v 28.3 c 0,0.9 -0.7,1.6 -1.6,1.6 h -8.1 c -0.9,0 -1.6,-0.7 -1.6,-1.6 v -0.8 c 0,-1.4 -1.6,-2.1 -2.7,-1.2 -3.3,2.8 -7.8,4.7 -13.8,4.7 -9.7,0.1 -18.1,-5.3 -18.1,-15.5 z m 34.6,-3.6 v -2.3 c 0,-0.7 -0.5,-1.3 -1.1,-1.5 -2.8,-0.9 -6.3,-1.6 -10.4,-1.6 -7.5,0 -11.9,3.2 -11.9,8.4 v 0.2 c 0,4.9 4.3,7.7 9.9,7.7 7.7,-0.1 13.5,-4.5 13.5,-10.9 z"
   id="path4" />
	<path
   d="m 469.7,267.4 h 8.5 c 0.9,0 1.6,0.7 1.6,1.6 v 36.2 c 0,1.4 1.7,2.1 2.7,1.1 l 17.8,-19 c 0.3,-0.3 0.7,-0.5 1.1,-0.5 h 9.7 c 1.4,0 2.1,1.7 1.1,2.6 l -16.6,17 c -0.5,0.5 -0.6,1.4 -0.2,2 l 18.3,26.5 c 0.7,1 0,2.4 -1.3,2.4 h -9.8 c -0.5,0 -1,-0.3 -1.3,-0.7 L 488,317 c -0.6,-0.8 -1.7,-0.9 -2.4,-0.2 l -5.4,5.6 c -0.3,0.3 -0.4,0.7 -0.4,1.1 v 12.3 c 0,0.9 -0.7,1.6 -1.6,1.6 h -8.5 c -0.9,0 -1.6,-0.7 -1.6,-1.6 V 269 c 0,-0.9 0.7,-1.6 1.6,-1.6 z"
   id="path5" />
	<path
   d="m 522.7,270.3 h 43.2 c 1.8,0 3.2,1.5 3.2,3.2 v 4 c 0,1.8 -1.5,3.2 -3.2,3.2 h -31.4 c -1.8,0 -3.2,1.5 -3.2,3.2 V 295 c 0,1.8 1.5,3.2 3.2,3.2 h 27.1 c 1.8,0 3.2,1.5 3.2,3.2 v 4 c 0,1.8 -1.5,3.2 -3.2,3.2 h -27.1 c -1.8,0 -3.2,1.5 -3.2,3.2 v 11.5 c 0,1.8 1.5,3.2 3.2,3.2 h 31.9 c 1.8,0 3.2,1.5 3.2,3.2 v 4 c 0,1.8 -1.5,3.2 -3.2,3.2 h -43.7 c -1.8,0 -3.2,-1.5 -3.2,-3.2 v -60.5 c -0.1,-1.5 1.4,-2.9 3.2,-2.9 z"
   id="path6" />
	<path
   d="m 574.2,327.8 35.1,-42.5 c 1.5,-1.8 0.2,-4.6 -2.1,-4.6 h -29.6 c -1.5,0 -2.8,-1.2 -2.8,-2.8 V 273 c 0,-1.5 1.2,-2.8 2.8,-2.8 h 48.1 c 1.5,0 2.8,1.2 2.8,2.8 v 4.9 c 0,0.6 -0.2,1.3 -0.6,1.8 l -35.2,42.5 c -1.5,1.8 -0.2,4.6 2.1,4.6 h 30.9 c 1.5,0 2.8,1.2 2.8,2.8 v 4.9 c 0,1.5 -1.2,2.8 -2.8,2.8 h -49.4 c -1.5,0 -2.8,-1.2 -2.8,-2.8 v -4.9 c 0,-0.7 0.2,-1.3 0.7,-1.8 z"
   id="path7" />
</g>
<g
   id="g9"
   transform="translate(-163.7,-260.3)">
	<path
   d="m 246.1,337 c 0,-0.1 -2.5,-6.2 -2.5,-12.3 V 324 c 0,-2.7 0,-6 0.9,-9.6 1.2,-4.5 2,-8 2,-12.7 0,-22.8 -18.6,-41.4 -41.4,-41.4 -22.8,0 -41.4,18.6 -41.4,41.4 0,22.8 18.6,41.4 41.4,41.4 h 36.9 6.7 z m -11.6,-12.9 v 0.6 c 0,3.4 0.6,6.8 1.3,9.5 H 205 c -17.9,0 -32.4,-14.5 -32.4,-32.4 0,-17.9 14.6,-32.4 32.4,-32.4 17.8,0 32.4,14.5 32.4,32.4 0,3.3 -0.5,5.9 -1.7,10.4 -1.2,4.7 -1.2,8.8 -1.2,11.9 z"
   id="path8" />
	<path
   d="m 217.8,280.3 c -3.8,-3.6 -8.7,-5.3 -13.9,-5 -9.4,0.6 -17.1,8.4 -17.4,17.9 -0.2,5.3 1.9,10.4 5.6,14 l -2.1,12 c -0.3,2.1 0.2,4.1 1.6,5.8 1.4,1.6 3.3,2.5 5.5,2.5 h 16.1 c 2.1,0 4.1,-0.9 5.5,-2.5 1.3,-1.6 1.9,-3.7 1.6,-5.7 l -2,-12 c 3.5,-3.5 5.6,-8.3 5.6,-13.3 -0.2,-5.3 -2.4,-10.2 -6.1,-13.7 z m -7.1,21.3 -2.2,1.6 2.5,15.2 h -11.7 l 2.5,-15.2 -2.2,-1.6 c -2.6,-1.9 -4.1,-4.9 -4,-8.2 0.2,-4.9 4.1,-8.9 9,-9.2 2.7,-0.2 5.2,0.8 7.2,2.6 2,1.8 3,4.3 3,7 -0.1,3.1 -1.6,6 -4.1,7.8 z"
   id="path9" />
</g>
</svg>
