<?xml version="1.0" encoding="UTF-8" standalone="no"?>
<!-- Generator: Adobe Illustrator 24.2.3, SVG Export Plug-In . SVG Version: 6.00 Build 0)  -->

<svg
   version="1.1"
   id="Layer_1"
   x="0px"
   y="0px"
   viewBox="0 0 604 140"
   xml:space="preserve"
   width="604"
   height="140"
   xmlns="http://www.w3.org/2000/svg"
   xmlns:svg="http://www.w3.org/2000/svg"><defs
   id="defs13" />
<style
   type="text/css"
   id="style1">
	.st0{fill:#009BAB;}
	.st1{fill:#F58220;}
	.st2{fill:#581D54;}
	.st3{fill:#FFFFFF;}
</style>
<g
   id="g7"
   transform="translate(-94.079238,-219.19493)">
	<path
   class="st0"
   d="m 237.8,317.3 3.4,-4.1 c 1.4,-1.6 3.8,-1.9 5.4,-0.6 6.8,5.2 13.9,8.1 22.6,8.1 8.8,0 14.3,-4.1 14.3,-10.1 v -0.2 c 0,-5.8 -3.2,-8.9 -18.2,-12.3 -17.2,-4.1 -26.8,-9.2 -26.8,-24.1 v -0.2 c 0,-13.8 11.5,-23.4 27.5,-23.4 10.2,0 18.6,2.7 25.9,7.7 1.9,1.3 2.4,3.8 1.1,5.6 l -3,4.3 c -1.2,1.7 -3.6,2.3 -5.4,1.1 -6.2,-4 -12.5,-6.1 -18.8,-6.1 -8.3,0 -13.1,4.3 -13.1,9.6 v 0.2 c 0,6.2 3.7,9 19.2,12.7 17,4.1 25.8,10.3 25.8,23.6 v 0.2 c 0,15.1 -11.9,24.1 -28.8,24.1 -11,0 -21.5,-3.4 -30.5,-10.3 -1.8,-1.4 -2,-4 -0.6,-5.8 z"
   id="path1" />
	<path
   class="st0"
   d="m 303,271.3 h 10.4 c 1,0 1.8,0.8 1.8,1.8 v 3.4 c 0,1.6 2,2.4 3.1,1.2 4.2,-4.5 9.8,-7.7 17.7,-7.7 14.3,0 28.2,11.3 28.2,31.6 v 0.2 c 0,20.2 -13.8,31.6 -28.2,31.6 -8,0 -13.6,-3.2 -17.7,-7.3 -1.1,-1.1 -3,-0.3 -3,1.3 v 21.4 c 0,1 -0.8,1.8 -1.8,1.8 H 303 c -1,0 -1.8,-0.8 -1.8,-1.8 v -75.7 c 0.1,-1 0.8,-1.8 1.8,-1.8 z m 47,30.6 v -0.2 c 0,-11.7 -7.9,-19.5 -17.4,-19.5 -9.4,0 -17.7,7.8 -17.7,19.5 v 0.2 c 0,11.6 8.3,19.5 17.7,19.5 9.5,-0.1 17.4,-7.6 17.4,-19.5 z"
   id="path2" />
	<path
   class="st0"
   d="m 366,302 v -0.9 c 0,-19.6 18.2,-34.8 37.3,-30.2 14.3,3.4 21.6,16.8 21.6,31.9 0,0 0,0 0,0 0,2.2 -1.8,3.9 -4,3.9 h -40.4 c -0.3,0 -0.5,0.3 -0.5,0.5 1.7,9.6 8.6,14.9 17.4,14.9 5.6,0 9.9,-1.7 13.9,-5 1.6,-1.2 3.8,-1.2 5.3,0.1 l 2.9,2.5 c 1.5,1.3 1.5,3.6 0.1,5 -5.5,5.4 -12.7,8.7 -22.4,8.7 C 379.6,333.5 366,320.8 366,302 Z m 44.5,-4.5 c 0.3,0 0.5,-0.2 0.5,-0.5 -1.1,-8.7 -6.3,-15.5 -15.4,-15.5 -8.4,0 -14.3,6.3 -15.7,15.5 0,0.3 0.2,0.5 0.5,0.5 z"
   id="path3" />
	<path
   class="st0"
   d="m 425.7,314.7 v -0.2 c 0,-13.1 10.3,-19.6 25.1,-19.6 6.8,0 11.6,1 16.4,2.5 v -1.5 c 0,-8.6 -5.3,-13.2 -15.1,-13.2 -6,0 -10.7,1.2 -15.5,3 -1,0.4 -2.2,-0.2 -2.5,-1.2 l -2.5,-7.3 c -0.3,-1 0.1,-2 1.1,-2.4 6.1,-2.6 12.4,-4.2 21.3,-4.2 9.1,0 15.9,2.4 20.2,6.8 4.5,4.4 6.6,10.8 6.6,18.8 v 34.1 c 0,1.1 -0.9,2 -2,2 H 469 c -1.1,0 -2,-0.9 -2,-2 v -1 c 0,-1.7 -1.9,-2.5 -3.2,-1.5 -4,3.3 -9.4,5.7 -16.6,5.7 -11.4,-0.1 -21.5,-6.6 -21.5,-18.8 z m 41.7,-4.4 v -2.8 c 0,-0.8 -0.5,-1.6 -1.3,-1.9 -3.4,-1.1 -7.6,-1.9 -12.5,-1.9 -9,0 -14.3,3.8 -14.3,10.1 v 0.2 c 0,5.9 5.2,9.2 11.9,9.2 9.1,0.1 16.2,-5.2 16.2,-12.9 z"
   id="path4" />
	<path
   class="st0"
   d="m 487.7,248.1 h 10.2 c 1,0 1.9,0.8 1.9,1.9 v 43.6 c 0,1.7 2.1,2.5 3.2,1.3 L 524.4,272 c 0.4,-0.4 0.8,-0.6 1.4,-0.6 h 11.7 c 1.7,0 2.5,2 1.3,3.2 l -20,20.5 c -0.6,0.6 -0.7,1.6 -0.2,2.4 l 22.1,31.9 c 0.9,1.2 0,2.9 -1.5,2.9 h -11.8 c -0.6,0 -1.2,-0.3 -1.5,-0.8 l -16.1,-23.7 c -0.7,-1 -2.1,-1.1 -2.9,-0.2 l -6.5,6.8 c -0.3,0.3 -0.5,0.8 -0.5,1.3 v 14.8 c 0,1 -0.8,1.9 -1.9,1.9 h -10.2 c -1,0 -1.9,-0.8 -1.9,-1.9 v -80.4 c -0.1,-1.2 0.7,-2 1.8,-2 z"
   id="path5" />
	<path
   class="st1"
   d="m 551.4,251.5 h 52 c 2.2,0 3.9,1.7 3.9,3.9 v 4.9 c 0,2.2 -1.7,3.9 -3.9,3.9 h -37.8 c -2.2,0 -3.9,1.7 -3.9,3.9 v 13.1 c 0,2.2 1.7,3.9 3.9,3.9 h 32.6 c 2.2,0 3.9,1.7 3.9,3.9 v 4.9 c 0,2.2 -1.7,3.9 -3.9,3.9 h -32.6 c -2.2,0 -3.9,1.7 -3.9,3.9 v 13.8 c 0,2.2 1.7,3.9 3.9,3.9 H 604 c 2.2,0 3.9,1.7 3.9,3.9 v 4.9 c 0,2.2 -1.7,3.9 -3.9,3.9 h -52.5 c -2.2,0 -3.9,-1.7 -3.9,-3.9 v -72.8 c -0.1,-2.1 1.7,-3.9 3.8,-3.9 z"
   id="path6" />
	<path
   class="st1"
   d="m 613.4,320.8 42.3,-51.2 c 1.8,-2.2 0.3,-5.5 -2.6,-5.5 h -35.6 c -1.9,0 -3.4,-1.5 -3.4,-3.4 v -5.9 c 0,-1.9 1.5,-3.4 3.4,-3.4 h 57.9 c 1.9,0 3.4,1.5 3.4,3.4 v 5.9 c 0,0.8 -0.3,1.5 -0.8,2.1 L 635.6,314 c -1.8,2.2 -0.3,5.5 2.6,5.5 h 37.2 c 1.9,0 3.4,1.5 3.4,3.4 v 5.9 c 0,1.9 -1.5,3.4 -3.4,3.4 H 616 c -1.9,0 -3.4,-1.5 -3.4,-3.4 v -5.9 c 0,-0.8 0.3,-1.5 0.8,-2.1 z"
   id="path7" />
</g>
<g
   id="g8"
   transform="translate(-94.079238,-219.19493)">
	<path
   class="st1"
   d="m 163.1,339.3 c -27.5,0 -49.9,-22.4 -49.9,-49.9 0,-27.5 22.4,-49.9 49.9,-49.9 27.5,0 49.9,22.4 49.9,49.9 0,5.6 -1,9.9 -2.4,15.2 -1.1,4.2 -1.1,8.3 -1.1,11.5 v 0.8 c 0,7.3 3,14.7 3.1,14.8 l 0.5,1.1 c 10.1,-11.6 16.3,-26.8 16.3,-43.5 0,-36.6 -29.6,-66.2 -66.2,-66.2 -36.6,0 -66.2,29.6 -66.2,66.2 0,36.6 29.6,66.2 66.2,66.2 16.7,0 31.9,-6.2 43.5,-16.3 h -43.6 z"
   id="path8" />
</g>
<g
   id="g9"
   transform="translate(-94.079238,-219.19493)">
	<path
   class="st2"
   d="m 202.1,289.5 c 0,-21.5 -17.5,-39 -39,-39 -21.5,0 -39,17.5 -39,39 0,21.5 17.5,39 39,39 h 37.1 c -0.8,-3.3 -1.5,-7.3 -1.5,-11.5 v -0.8 c 0,-3.7 0,-8.7 1.4,-14.3 1.4,-5.3 2,-8.4 2,-12.4 z m -20.8,20.8 c 0.4,2.5 -0.3,5 -1.9,6.9 -1.6,1.9 -4,3.1 -6.6,3.1 h -19.4 c -2.5,0 -4.9,-1.1 -6.6,-3.1 -1.6,-1.9 -2.3,-4.4 -1.9,-6.9 l 2.5,-14.5 c -4.5,-4.4 -6.9,-10.5 -6.7,-16.8 0.4,-11.4 9.6,-20.8 21,-21.5 6.3,-0.4 12.2,1.8 16.8,6 4.5,4.2 7.1,10.2 7.1,16.3 0,6 -2.5,11.8 -6.7,16 z"
   id="path9" />
</g>
<path
   class="st0"
   d="m 80.720762,60.705075 c 0,-3.2 -1.3,-6.2 -3.6,-8.4 -2.3,-2.2 -5.4,-3.3 -8.7,-3.1 -5.8,0.4 -10.6,5.2 -10.8,11.1 -0.1,3.9 1.7,7.6 4.8,9.9 l 2.7,1.9 -3,18.3 h 14.1 l -3,-18.3 2.7,-1.9 c 2.9,-2.3 4.8,-5.8 4.8,-9.5 z"
   id="path10" />
<path
   class="st3"
   d="m 84.420762,44.305075 c -4.5,-4.3 -10.5,-6.4 -16.8,-6 -11.3,0.7 -20.5,10.2 -21,21.5 -0.2,6.4 2.2,12.5 6.7,16.8 l -2.5,14.5 c -0.4,2.5 0.3,5 1.9,6.9 1.6,1.9 4,3.099995 6.6,3.099995 h 19.4 c 2.5,0 4.9,-1.1 6.6,-3.099995 1.6,-1.9 2.3,-4.4 1.9,-6.9 l -2.5,-14.5 c 4.3,-4.2 6.7,-9.9 6.7,-16 0.1,-6.1 -2.5,-12.1 -7,-16.3 z m -8.6,25.8 -2.7,1.9 3,18.3 h -14.1 l 3,-18.3 -2.7,-1.9 c -3.2,-2.3 -5,-6 -4.8,-9.9 0.2,-5.9 5,-10.7 10.8,-11.1 3.2,-0.2 6.3,0.9 8.7,3.1 2.4,2.2 3.6,5.2 3.6,8.4 0.1,3.8 -1.8,7.3 -4.8,9.5 z"
   id="path11" />
<g
   id="g12"
   transform="translate(-94.079238,-219.19493)">
	<path
   class="st3"
   d="m 213,332.9 -0.5,-1.1 c 0,-0.1 -3.1,-7.5 -3.1,-14.8 v -0.8 c 0,-3.2 0,-7.3 1.1,-11.5 1.4,-5.4 2.4,-9.6 2.4,-15.2 0,-27.5 -22.4,-49.9 -49.9,-49.9 -27.5,0 -49.9,22.4 -49.9,49.9 0,27.5 22.4,49.9 49.9,49.9 h 43.5 c 2.3,-2 4.5,-4.2 6.5,-6.5 z m -14.4,-16.6 v 0.8 c 0,4.1 0.7,8.2 1.5,11.5 H 163 c -21.5,0 -39,-17.5 -39,-39 0,-21.5 17.5,-39 39,-39 21.5,0 39,17.5 39,39 0,4 -0.6,7.1 -2,12.5 -1.4,5.5 -1.4,10.5 -1.4,14.2 z"
   id="path12" />
</g>
<g
   id="g13"
   transform="translate(-94.079238,-219.19493)">
	<path
   class="st1"
   d="m 686.3,324.8 h -1.5 v -1 h 4.2 v 1 h -1.5 v 4.1 h -1.2 z m 3.7,-1 h 1.2 l 1.3,2.1 1.3,-2.1 h 1.2 v 5.1 h -1 v -3.4 l -1.4,2.2 h -0.1 l -1.4,-2.2 v 3.4 H 690 Z"
   id="path13" />
</g>
</svg>
