<?xml version="1.0" encoding="UTF-8" standalone="no"?>
<!-- Generator: Adobe Illustrator 24.2.3, SVG Export Plug-In . SVG Version: 6.00 Build 0)  -->

<svg
   version="1.1"
   id="Layer_1"
   x="0px"
   y="0px"
   viewBox="0 0 100.26677 97.671631"
   xml:space="preserve"
   width="100.26677"
   height="97.671631"
   xmlns="http://www.w3.org/2000/svg"
   xmlns:svg="http://www.w3.org/2000/svg"><defs
   id="defs9" />

<g
   id="g9"
   transform="matrix(1.1796091,0,0,1.1796091,-193.10201,-307.05225)">
	<path
   d="m 246.1,337 c 0,-0.1 -2.5,-6.2 -2.5,-12.3 V 324 c 0,-2.7 0,-6 0.9,-9.6 1.2,-4.5 2,-8 2,-12.7 0,-22.8 -18.6,-41.4 -41.4,-41.4 -22.8,0 -41.4,18.6 -41.4,41.4 0,22.8 18.6,41.4 41.4,41.4 h 36.9 6.7 z m -11.6,-12.9 v 0.6 c 0,3.4 0.6,6.8 1.3,9.5 H 205 c -17.9,0 -32.4,-14.5 -32.4,-32.4 0,-17.9 14.6,-32.4 32.4,-32.4 17.8,0 32.4,14.5 32.4,32.4 0,3.3 -0.5,5.9 -1.7,10.4 -1.2,4.7 -1.2,8.8 -1.2,11.9 z"
   id="path8" />
	<path
   d="m 217.8,280.3 c -3.8,-3.6 -8.7,-5.3 -13.9,-5 -9.4,0.6 -17.1,8.4 -17.4,17.9 -0.2,5.3 1.9,10.4 5.6,14 l -2.1,12 c -0.3,2.1 0.2,4.1 1.6,5.8 1.4,1.6 3.3,2.5 5.5,2.5 h 16.1 c 2.1,0 4.1,-0.9 5.5,-2.5 1.3,-1.6 1.9,-3.7 1.6,-5.7 l -2,-12 c 3.5,-3.5 5.6,-8.3 5.6,-13.3 -0.2,-5.3 -2.4,-10.2 -6.1,-13.7 z m -7.1,21.3 -2.2,1.6 2.5,15.2 h -11.7 l 2.5,-15.2 -2.2,-1.6 c -2.6,-1.9 -4.1,-4.9 -4,-8.2 0.2,-4.9 4.1,-8.9 9,-9.2 2.7,-0.2 5.2,0.8 7.2,2.6 2,1.8 3,4.3 3,7 -0.1,3.1 -1.6,6 -4.1,7.8 z"
   id="path9" />
</g>
</svg>
