<?xml version="1.0" encoding="UTF-8" standalone="no"?>
<!-- Generator: Adobe Illustrator 24.2.3, SVG Export Plug-In . SVG Version: 6.00 Build 0)  -->

<svg
   version="1.1"
   id="Layer_1"
   x="0px"
   y="0px"
   viewBox="0 0 104860.8 81028.797"
   xml:space="preserve"
   width="104860.8"
   height="81028.797"
   xmlns="http://www.w3.org/2000/svg"
   xmlns:svg="http://www.w3.org/2000/svg"><defs
   id="defs13" />
<style
   type="text/css"
   id="style1">
	.st0{fill:#009BAB;}
	.st1{fill:#F58220;}
	.st2{fill:#581D54;}
	.st3{fill:#FFFFFF;}
</style>

<g
   id="g8"
   transform="translate(-76824,-136537.2)">
	<path
   class="st1"
   d="m 163.1,339.3 c -27.5,0 -49.9,-22.4 -49.9,-49.9 0,-27.5 22.4,-49.9 49.9,-49.9 27.5,0 49.9,22.4 49.9,49.9 0,5.6 -1,9.9 -2.4,15.2 -1.1,4.2 -1.1,8.3 -1.1,11.5 v 0.8 c 0,7.3 3,14.7 3.1,14.8 l 0.5,1.1 c 10.1,-11.6 16.3,-26.8 16.3,-43.5 0,-36.6 -29.6,-66.2 -66.2,-66.2 -36.6,0 -66.2,29.6 -66.2,66.2 0,36.6 29.6,66.2 66.2,66.2 16.7,0 31.9,-6.2 43.5,-16.3 h -43.6 z"
   id="path8" />
</g>
<g
   id="g9"
   transform="translate(-76824,-136537.2)">
	<path
   class="st2"
   d="m 202.1,289.5 c 0,-21.5 -17.5,-39 -39,-39 -21.5,0 -39,17.5 -39,39 0,21.5 17.5,39 39,39 h 37.1 c -0.8,-3.3 -1.5,-7.3 -1.5,-11.5 v -0.8 c 0,-3.7 0,-8.7 1.4,-14.3 1.4,-5.3 2,-8.4 2,-12.4 z m -20.8,20.8 c 0.4,2.5 -0.3,5 -1.9,6.9 -1.6,1.9 -4,3.1 -6.6,3.1 h -19.4 c -2.5,0 -4.9,-1.1 -6.6,-3.1 -1.6,-1.9 -2.3,-4.4 -1.9,-6.9 l 2.5,-14.5 c -4.5,-4.4 -6.9,-10.5 -6.7,-16.8 0.4,-11.4 9.6,-20.8 21,-21.5 6.3,-0.4 12.2,1.8 16.8,6 4.5,4.2 7.1,10.2 7.1,16.3 0,6 -2.5,11.8 -6.7,16 z"
   id="path9" />
</g>
<path
   class="st0"
   d="m -76649.2,-136257.3 c 0,-3.2 -1.3,-6.2 -3.6,-8.4 -2.3,-2.2 -5.4,-3.3 -8.7,-3.1 -5.8,0.4 -10.6,5.2 -10.8,11.1 -0.1,3.9 1.7,7.6 4.8,9.9 l 2.7,1.9 -3,18.3 h 14.1 l -3,-18.3 2.7,-1.9 c 2.9,-2.3 4.8,-5.8 4.8,-9.5 z"
   id="path10" />
<path
   class="st3"
   d="m -76645.5,-136273.7 c -4.5,-4.3 -10.5,-6.4 -16.8,-6 -11.3,0.7 -20.5,10.2 -21,21.5 -0.2,6.4 2.2,12.5 6.7,16.8 l -2.5,14.5 c -0.4,2.5 0.3,5 1.9,6.9 1.6,1.9 4,3.1 6.6,3.1 h 19.4 c 2.5,0 4.9,-1.1 6.6,-3.1 1.6,-1.9 2.3,-4.4 1.9,-6.9 l -2.5,-14.5 c 4.3,-4.2 6.7,-9.9 6.7,-16 0.1,-6.1 -2.5,-12.1 -7,-16.3 z m -8.6,25.8 -2.7,1.9 3,18.3 h -14.1 l 3,-18.3 -2.7,-1.9 c -3.2,-2.3 -5,-6 -4.8,-9.9 0.2,-5.9 5,-10.7 10.8,-11.1 3.2,-0.2 6.3,0.9 8.7,3.1 2.4,2.2 3.6,5.2 3.6,8.4 0.1,3.8 -1.8,7.3 -4.8,9.5 z"
   id="path11" />
<g
   id="g12"
   transform="translate(-76824,-136537.2)">
	<path
   class="st3"
   d="m 213,332.9 -0.5,-1.1 c 0,-0.1 -3.1,-7.5 -3.1,-14.8 v -0.8 c 0,-3.2 0,-7.3 1.1,-11.5 1.4,-5.4 2.4,-9.6 2.4,-15.2 0,-27.5 -22.4,-49.9 -49.9,-49.9 -27.5,0 -49.9,22.4 -49.9,49.9 0,27.5 22.4,49.9 49.9,49.9 h 43.5 c 2.3,-2 4.5,-4.2 6.5,-6.5 z m -14.4,-16.6 v 0.8 c 0,4.1 0.7,8.2 1.5,11.5 H 163 c -21.5,0 -39,-17.5 -39,-39 0,-21.5 17.5,-39 39,-39 21.5,0 39,17.5 39,39 0,4 -0.6,7.1 -2,12.5 -1.4,5.5 -1.4,10.5 -1.4,14.2 z"
   id="path12" />
</g>
<g
   id="g13"
   transform="translate(-76824,-136537.2)">
	<path
   class="st1"
   d="m 686.3,324.8 h -1.5 v -1 h 4.2 v 1 h -1.5 v 4.1 h -1.2 z m 3.7,-1 h 1.2 l 1.3,2.1 1.3,-2.1 h 1.2 v 5.1 h -1 v -3.4 l -1.4,2.2 h -0.1 l -1.4,-2.2 v 3.4 H 690 Z"
   id="path13" />
</g>
</svg>
